<svg xmlns="http://www.w3.org/2000/svg" version="1.1" xmlns:xlink="http://www.w3.org/1999/xlink" xmlns:svgjs="http://svgjs.dev/svgjs" width="1000" height="583" viewBox="0 0 1000 583"><g transform="matrix(1,0,0,1,-0.6056348047761162,0.13651303223173272)"><svg viewBox="0 0 396 231" data-background-color="#ff5858" preserveAspectRatio="xMidYMid meet" height="583" width="1000" xmlns="http://www.w3.org/2000/svg" xmlns:xlink="http://www.w3.org/1999/xlink"><g id="tight-bounds" transform="matrix(1,0,0,1,0.24008861730862918,-0.054044180258046026)"><svg viewBox="0 0 395.52 231.10813424963288" height="231.10813424963288" width="395.52"><g><svg viewBox="0 0 395.52 231.10813424963288" height="231.10813424963288" width="395.52"><g><svg viewBox="0 0 395.52 231.10813424963288" height="231.10813424963288" width="395.52"><g id="textblocktransform"><svg viewBox="0 0 395.52 231.10813424963288" height="231.10813424963288" width="395.52" id="textblock"><g><svg viewBox="0 0 395.52 231.10813424963288" height="231.10813424963288" width="395.52"><path d="M394.594 49.568C392.735 25.579 387.435 18.91 387.435 18.91 371.165-5.798 350.86-0.473 332.619 3.078 300.414 3.222 268.339 8.499 236.208 11.33 168.767 11.762 100.749 4.661 33.643 22.173 27.339 27.546-6.54 23.228 1.121 52.639 3.129 64.873 10.456 78.451 10.232 89.678 11.236 91.645 12.631 87.135 13.226 89.966 15.309 97.594 18.711 93.996 21.501 98.506 17.614 110.548 20.403 120.576 23.062 131.083 18.377 133.817 12.371 132.522 9.675 141.59 9.396 148.163 7.89 146.915 6.235 146.628 5.026 146.436 2.59 147.155 2.999 149.218 4.394 156.271-1.594 160.349 2.162 167.258-0.422 174.743 3.948 181.22 3.353 189.328 3.278 190.959 3.687 192.35 4.338 192.734 7.22 194.797 3.018 198.827 3.464 203.193 33.029 233.036 65.104 212.405 95.394 226.127 103.259 216.531 97.346 229.533 100.489 227.518 102.943 225.167 104.728 234.907 107.499 229.389 107.927 227.806 107.276 224.064 108.8 224.784 109.6 225.167 110.307 225.071 110.418 222.864 110.586 219.554 109.117 221.617 108.726 219.89 112.947 211.158 111.906 231.932 115.866 231.069 115.68 228.526 114.528 224.879 116.889 225.359 119.232 221.713 119.306 218.69 121.389 226.895 121.463 228.67 121.835 229.917 122.43 230.781 128.938 221.857 135.409 233.947 142.233 229.917 146.417 225.503 150.433 232.316 154.672 230.637 156.16 229.293 157.666 226.895 159.098 230.925 176.632 231.788 195.319 228.19 211.943 231.069 256.364 225.695 303.835 233.276 350.674 226.175 361.719 223.44 373.192 219.554 383.958 216.435 383.958 216.435 392.679 207.895 392.679 169.513S394.538 135.928 394.817 105.367C395.096 74.805 396.398 73.557 394.538 49.568Z" opacity="1" fill="#ffffff" data-fill-palette-color="tertiary"></path><g transform="matrix(1,0,0,1,55.76832,26.230666666666668)"><svg width="283.98335999999995" viewBox="3.049999952316284 -35 56.75 35.70000076293945" height="178.64680091629955" data-palette-color="#ff5858"><path d="M25.85-28.8L25.85-10.5Q25.85-5.05 22.9-2.18 19.95 0.7 14.8 0.7L14.8 0.7Q12.15 0.7 10-0.03 7.85-0.75 6.3-2.18 4.75-3.6 3.9-5.68 3.05-7.75 3.05-10.5L3.05-10.5 3.05-13.8 9.65-13.8 9.65-10.5Q9.65-8.15 10.95-6.83 12.25-5.5 14.6-5.5L14.6-5.5Q16.8-5.5 18.03-6.8 19.25-8.1 19.25-10.5L19.25-10.5 19.25-28.8 15.65-28.8 15.65-35 28.85-35 28.85-28.8 25.85-28.8ZM41.05-14.35L41.05 0 34.45 0 34.45-35 41.05-35 41.05-20.65 42.5-20.65 51.75-35 59.2-35 59.2-34.7 48.4-17.95 48.4-17.05 59.8-0.3 59.8 0 52.05 0 42.5-14.35 41.05-14.35Z" opacity="1" transform="matrix(1,0,0,1,0,0)" fill="#ff5858" class="wordmark-text-0" data-fill-palette-color="quaternary" id="text-0"></path></svg></g></svg></g></svg></g></svg></g><g></g></svg></g><defs></defs></svg><rect width="395.52" height="231.10813424963288" fill="none" stroke="none" visibility="hidden"></rect></g></svg></g></svg>